HIERARCHY
ROOT joint_Root
{
	OFFSET 0.0 0.0 0.0
	CHANNELS 6 Xposition Yposition Zposition Zrotation Xrotation Yrotation 
	JOINT Hips
	{
		OFFSET -0.726466 93.3139 -2.00062
		CHANNELS 6 Xposition Yposition Zposition Zrotation Xrotation Yrotation 
		JOINT Spine
		{
			OFFSET 15.7357 0.0 0.0
			CHANNELS 6 Xposition Yposition Zposition Zrotation Xrotation Yrotation 
			JOINT Chest
			{
				OFFSET 8.98455 -0.406207 0.0
				CHANNELS 6 Xposition Yposition Zposition Zrotation Xrotation Yrotation 
				JOINT Neck
				{
					OFFSET 16.3773 0.0 0.0
					CHANNELS 6 Xposition Yposition Zposition Zrotation Xrotation Yrotation 
					JOINT Head
					{
						OFFSET 6.45672 0.0 0.0
						CHANNELS 6 Xposition Yposition Zposition Zrotation Xrotation Yrotation 
						End Site
						{
							OFFSET 0.0 0.0 0.0
						}
					}
				}
				JOINT Shoulder_L
				{
					OFFSET 12.9942 -0.242716 4.98039
					CHANNELS 6 Xposition Yposition Zposition Zrotation Xrotation Yrotation 
					JOINT UpperArm_L
					{
						OFFSET 5.34809 0.0 0.0
						CHANNELS 6 Xposition Yposition Zposition Zrotation Xrotation Yrotation 
						JOINT LowerArm_L
						{
							OFFSET 24.3286 1.87007e-05 0.0
							CHANNELS 6 Xposition Yposition Zposition Zrotation Xrotation Yrotation 
							JOINT Hand_L
							{
								OFFSET 22.2916 0.0 0.0
								CHANNELS 6 Xposition Yposition Zposition Zrotation Xrotation Yrotation 
								End Site
								{
									OFFSET 0.0 0.0 0.0
								}
							}
						}
					}
				}
				JOINT Shoulder_R
				{
					OFFSET 12.9945 -0.242716 -4.98039
					CHANNELS 6 Xposition Yposition Zposition Zrotation Xrotation Yrotation 
					JOINT UpperArm_R
					{
						OFFSET -5.34813 0.0 0.0
						CHANNELS 6 Xposition Yposition Zposition Zrotation Xrotation Yrotation 
						JOINT LowerArm_R
						{
							OFFSET -24.3289 0.000322201 0.0
							CHANNELS 6 Xposition Yposition Zposition Zrotation Xrotation Yrotation 
							JOINT Hand_R
							{
								OFFSET -22.2915 -0.000108084 0.0
								CHANNELS 6 Xposition Yposition Zposition Zrotation Xrotation Yrotation 
								End Site
								{
									OFFSET 0.0 0.0 0.0
								}
							}
						}
					}
				}
			}
		}
		JOINT UpperLeg_L
		{
			OFFSET -2.19248 -6.46944 0.0
			CHANNELS 6 Xposition Yposition Zposition Zrotation Xrotation Yrotation 
			JOINT LowerLeg_L
			{
				OFFSET 39.0811 0.0 -1.23785e-05
				CHANNELS 6 Xposition Yposition Zposition Zrotation Xrotation Yrotation 
				JOINT Foot_L
				{
					OFFSET 40.9854 0.0 -1.26872e-05
					CHANNELS 6 Xposition Yposition Zposition Zrotation Xrotation Yrotation 
					JOINT Toes_L
					{
						OFFSET 11.7543 0.0 0.0
						CHANNELS 6 Xposition Yposition Zposition Zrotation Xrotation Yrotation 
						End Site
						{
							OFFSET 0.0 0.0 0.0
						}
					}
				}
			}
		}
		JOINT UpperLeg_R
		{
			OFFSET -2.19251 6.46944 0.0
			CHANNELS 6 Xposition Yposition Zposition Zrotation Xrotation Yrotation 
			JOINT LowerLeg_R
			{
				OFFSET -39.0811 -0.00228153 -0.0401928
				CHANNELS 6 Xposition Yposition Zposition Zrotation Xrotation Yrotation 
				JOINT Foot_R
				{
					OFFSET -40.9854 0.0 0.0
					CHANNELS 6 Xposition Yposition Zposition Zrotation Xrotation Yrotation 
					JOINT Toes_R
					{
						OFFSET -11.7543 0.0 0.0
						CHANNELS 6 Xposition Yposition Zposition Zrotation Xrotation Yrotation 
						End Site
						{
							OFFSET 0.0 0.0 0.0
						}
					}
				}
			}
		}
	}
}
MOTION
Frames:	9
Frame Time:	0.0333333
0.000000 0.000000 0.000000 0.000000 0.000000 -0.000000 -1.924350 92.337200 -1.372440 88.098900 -0.459039 3.530950 15.735700 0.000005 -0.000001 83.332500 85.197100 -82.816800 8.984550 -0.406207 -0.000000 1.780410 -1.141570 1.048240 16.377300 -0.000001 -0.000001 3.833460 -2.597950 1.083050 6.456720 -0.000001 -0.000000 4.548100 -2.753430 -0.725807 12.994200 -0.242716 4.980390 -89.888100 -0.354238 -72.469300 5.348090 -0.000007 -0.000001 -67.262200 42.916700 -15.505300 24.328600 0.000019 0.000005 1.087590 2.537670 -23.207300 22.291600 -0.000001 0.000005 4.244660 5.511530 -7.005260 12.994500 -0.242716 -4.980390 87.939100 6.804180 -73.105100 -5.348130 -0.000001 -0.000004 -65.082700 37.625800 -17.280100 -24.328900 0.000322 -0.000009 3.396730 10.692700 -17.743000 -22.291500 -0.000108 -0.000004 5.320820 5.384890 -2.451940 -2.192480 -6.469440 -0.000000 -174.931000 -4.905810 -3.000730 39.081100 -0.000007 -0.000012 -0.103621 0.252055 22.347900 40.985400 -0.000006 -0.000013 -0.912766 3.928620 -66.038700 11.754300 -0.000000 0.000003 -0.000050 -0.000564 -16.599500 -2.192510 6.469440 -0.000001 -179.211000 14.651300 -179.933000 -39.081100 -0.002282 -0.040193 0.008454 -0.014942 18.950700 -40.985400 0.000008 0.000006 5.633110 6.684050 -66.378000 -11.754300 -0.000006 -0.000006 -0.005899 -0.069919 -19.418600
0.000000 0.000000 0.000000 0.000000 0.000000 -0.000000 -1.941020 92.334500 -1.387630 88.069800 -0.437507 3.486430 15.735700 0.000005 -0.000001 82.980800 85.214500 -82.529900 8.984550 -0.406207 -0.000000 1.738470 -1.192620 0.919131 16.377300 -0.000001 -0.000001 3.754170 -2.508870 1.032140 6.456720 -0.000001 -0.000000 4.481030 -2.603060 -0.734431 12.994200 -0.242716 4.980390 -89.868600 -0.414608 -72.410300 5.348090 -0.000007 -0.000001 -67.172800 42.740400 -15.654500 24.328600 0.000019 0.000005 1.117150 2.603670 -23.231600 22.291600 -0.000001 0.000005 4.277350 5.512670 -7.052800 12.994500 -0.242716 -4.980390 87.869700 6.943300 -72.896600 -5.348130 -0.000001 -0.000004 -64.929700 34.939900 -17.447400 -24.328900 0.000322 -0.000009 4.145590 11.304000 -20.296900 -22.291500 -0.000108 -0.000004 4.800920 5.370940 -2.013700 -2.192480 -6.469440 -0.000000 -174.901000 -4.884270 -3.091680 39.081100 -0.000007 -0.000012 -0.103976 0.252221 22.403500 40.985400 -0.000006 -0.000013 -0.921146 3.919500 -66.048900 11.754300 -0.000000 0.000003 -0.000048 -0.000543 -16.598600 -2.192510 6.469440 -0.000001 -179.142000 14.671400 -179.998000 -39.081100 -0.002282 -0.040193 0.011867 -0.024856 18.968200 -40.985400 0.000008 0.000006 5.735990 6.666410 -66.395000 -11.754300 -0.000006 -0.000006 -0.006132 -0.072029 -19.504700
0.000000 0.000000 0.000000 0.000000 0.000000 -0.000000 -1.929730 92.343100 -1.399060 88.069200 -0.439628 3.475530 15.735700 0.000005 -0.000001 82.432500 85.225100 -82.067700 8.984550 -0.406207 -0.000000 1.705140 -1.276220 0.747962 16.377300 -0.000001 -0.000001 3.704450 -2.356060 0.939478 6.456720 -0.000001 -0.000000 4.384260 -2.320000 -0.735037 12.994200 -0.242716 4.980390 -89.844700 -0.488491 -72.360300 5.348090 -0.000007 -0.000001 -67.102900 42.603600 -15.758900 24.328600 0.000019 0.000005 0.995961 2.312780 -23.304800 22.291600 -0.000001 0.000005 4.269400 5.512900 -7.062360 12.994500 -0.242716 -4.980390 87.766700 7.164900 -72.637200 -5.348130 -0.000001 -0.000004 -64.300700 31.280000 -18.086000 -24.328900 0.000322 -0.000009 4.683570 10.391400 -24.438000 -22.291500 -0.000108 -0.000004 3.939520 5.358070 -1.621250 -2.192480 -6.469440 -0.000000 -174.908000 -4.909050 -3.085660 39.081100 -0.000007 -0.000012 -0.103143 0.250835 22.352500 40.985400 -0.000006 -0.000013 -0.911400 3.935920 -66.014600 11.754300 -0.000000 0.000003 -0.000049 -0.000552 -16.599000 -2.192510 6.469440 -0.000001 -179.115000 14.703700 179.985000 -39.081100 -0.002282 -0.040193 0.018201 -0.043328 18.951500 -40.985400 0.000008 0.000006 5.969940 6.634840 -66.410300 -11.754300 -0.000006 -0.000006 -0.005973 -0.070587 -19.445900
0.000000 0.000000 0.000000 0.000000 0.000000 -0.000000 -1.908550 92.344300 -1.436300 88.050700 -0.609757 3.475630 15.735700 0.000005 -0.000001 81.887400 85.244100 -81.607200 8.984550 -0.406207 -0.000000 1.654500 -1.356490 0.579414 16.377300 -0.000001 -0.000001 3.708690 -2.165230 0.870177 6.456720 -0.000001 -0.000000 4.292690 -1.938540 -0.838330 12.994200 -0.242716 4.980390 -89.830100 -0.533105 -72.322600 5.348090 -0.000007 -0.000001 -67.094900 42.449500 -15.701000 24.328600 0.000019 0.000005 1.006130 2.324560 -23.411300 22.291600 -0.000001 0.000005 4.301860 5.511830 -7.017500 12.994500 -0.242716 -4.980390 87.680800 7.327240 -72.382300 -5.348130 -0.000001 -0.000004 -63.025800 27.483600 -19.759300 -24.328900 0.000322 -0.000009 4.863370 8.617130 -29.601700 -22.291500 -0.000108 -0.000004 4.112030 5.362450 -1.753680 -2.192480 -6.469440 -0.000000 -174.908000 -5.005870 -3.098230 39.081100 -0.000007 -0.000012 -0.101878 0.247442 22.378200 40.985400 -0.000006 -0.000013 -0.901731 3.879890 -66.016800 11.754300 -0.000000 0.000003 -0.000046 -0.000523 -16.597900 -2.192510 6.469440 -0.000001 -179.111000 14.704500 179.934000 -39.081100 -0.002282 -0.040193 0.020413 -0.049655 18.991500 -40.985400 0.000008 0.000006 6.086920 6.790080 -66.420000 -11.754300 -0.000006 -0.000006 -0.005976 -0.070621 -19.447200
0.000000 0.000000 0.000000 0.000000 0.000000 -0.000000 -1.848270 92.340900 -1.479950 87.992100 -0.913929 3.518420 15.735700 0.000005 -0.000001 81.524000 85.264600 -81.318900 8.984550 -0.406207 -0.000000 1.604410 -1.406220 0.429474 16.377300 -0.000001 -0.000001 3.763570 -1.973160 0.833840 6.456720 -0.000001 -0.000000 4.280370 -1.581720 -0.993418 12.994200 -0.242716 4.980390 -89.825400 -0.547758 -72.317600 5.348090 -0.000007 -0.000001 -66.972400 42.472000 -15.711300 24.328600 0.000019 0.000005 0.999599 2.317740 -23.336500 22.291600 -0.000001 0.000005 4.236660 5.512350 -7.039120 12.994500 -0.242716 -4.980390 87.654000 7.312680 -72.158400 -5.348130 -0.000001 -0.000004 -61.419300 23.524400 -22.445700 -24.328900 0.000322 -0.000009 5.865180 8.122350 -36.018900 -22.291500 -0.000108 -0.000004 5.412060 5.355820 -1.553220 -2.192480 -6.469440 -0.000000 -174.875000 -5.216640 -3.081520 39.081100 -0.000007 -0.000012 -0.103248 0.249625 22.470500 40.985400 -0.000006 -0.000013 -0.885398 3.758810 -66.060700 11.754300 -0.000000 0.000003 -0.000050 -0.000566 -16.599500 -2.192510 6.469440 -0.000001 -179.103000 14.575700 179.907000 -39.081100 -0.002282 -0.040193 0.021057 -0.051381 19.041900 -40.985400 0.000008 0.000006 6.092400 6.982640 -66.400200 -11.754300 -0.000006 -0.000006 -0.006021 -0.071022 -19.463600
0.000000 0.000000 0.000000 0.000000 0.000000 -0.000000 -1.766520 92.340900 -1.516570 87.948200 -1.364960 3.606660 15.735700 0.000005 -0.000001 81.558400 85.276500 -81.439700 8.984550 -0.406207 -0.000000 1.580520 -1.392490 0.256331 16.377300 -0.000001 -0.000001 3.777660 -1.783520 0.891731 6.456720 -0.000001 -0.000000 4.317860 -1.250200 -1.149860 12.994200 -0.242716 4.980390 -89.825100 -0.546077 -72.241400 5.348090 -0.000007 -0.000001 -66.826500 42.540700 -15.761400 24.328600 0.000019 0.000005 1.070930 2.497360 -23.218500 22.291600 -0.000001 0.000005 4.348030 5.511010 -6.983250 12.994500 -0.242716 -4.980390 87.701600 7.110630 -72.035100 -5.348130 -0.000001 -0.000004 -60.000900 19.037100 -25.928700 -24.328900 0.000322 -0.000009 8.136260 8.678830 -43.446700 -22.291500 -0.000108 -0.000004 7.331770 5.342510 -1.158680 -2.192480 -6.469440 -0.000000 -174.881000 -5.431580 -2.964930 39.081100 -0.000007 -0.000012 -0.102409 0.247042 22.516200 40.985400 -0.000006 -0.000013 -0.867702 3.539500 -66.106200 11.754300 -0.000000 0.000003 -0.000049 -0.000559 -16.599300 -2.192510 6.469440 -0.000001 -179.142000 14.309300 179.939000 -39.081100 -0.002282 -0.040193 0.018323 -0.043403 19.065000 -40.985400 0.000008 0.000006 5.953880 7.188610 -66.336500 -11.754300 -0.000006 -0.000006 -0.005769 -0.068725 -19.369900
0.000000 0.000000 0.000000 0.000000 0.000000 -0.000000 -1.669510 92.343500 -1.575480 87.857600 -1.821240 3.625940 15.735700 0.000005 -0.000001 81.817000 85.326200 -81.755800 8.984550 -0.406207 -0.000000 1.487500 -1.333150 0.139684 16.377300 -0.000001 -0.000001 3.817340 -1.591960 0.958546 6.456720 -0.000001 -0.000000 4.363630 -0.969446 -1.245310 12.994200 -0.242716 4.980390 -89.845200 -0.482350 -72.201200 5.348090 -0.000007 -0.000001 -66.809200 42.416100 -15.684900 24.328600 0.000019 0.000005 1.121370 2.634640 -23.065000 22.291600 -0.000001 0.000005 4.414260 5.510610 -6.966950 12.994500 -0.242716 -4.980390 87.817000 6.696220 -71.896900 -5.348130 -0.000001 -0.000004 -58.956500 14.196100 -30.135200 -24.328900 0.000322 -0.000009 11.180000 9.062630 -51.438200 -22.291500 -0.000108 -0.000004 9.358410 5.325770 -0.664840 -2.192480 -6.469440 -0.000000 -174.858000 -5.653410 -2.955130 39.081100 -0.000007 -0.000012 -0.101518 0.243874 22.600600 40.985400 -0.000006 -0.000013 -0.846272 3.288260 -66.151400 11.754300 -0.000000 0.000003 -0.000055 -0.000611 -16.601300 -2.192510 6.469440 -0.000001 -179.087000 13.943800 179.879000 -39.081100 -0.002282 -0.040193 0.019389 -0.046445 19.081200 -40.985400 0.000008 0.000006 6.002670 7.293950 -66.273400 -11.754300 -0.000006 -0.000006 -0.005900 -0.069925 -19.418900
0.000000 0.000000 0.000000 0.000000 0.000000 -0.000000 -1.539840 92.353100 -1.620950 87.823900 -2.211770 3.679000 15.735700 0.000005 -0.000001 82.230600 85.363200 -82.237500 8.984550 -0.406207 -0.000000 1.422830 -1.252660 0.001884 16.377300 -0.000001 -0.000001 3.791890 -1.429280 0.963330 6.456720 -0.000001 -0.000000 4.430390 -0.849884 -1.152430 12.994200 -0.242716 4.980390 -89.852800 -0.456128 -72.116800 5.348090 -0.000007 -0.000001 -66.824400 42.319300 -15.667200 24.328600 0.000019 0.000005 1.101150 2.601580 -22.950000 22.291600 -0.000001 0.000005 4.449780 5.509080 -6.903500 12.994500 -0.242716 -4.980390 87.979800 6.207300 -71.932200 -5.348130 -0.000001 -0.000004 -58.332100 8.940370 -34.617600 -24.328900 0.000322 -0.000009 13.480000 7.956830 -59.994100 -22.291500 -0.000108 -0.000004 11.384100 5.313060 -0.299345 -2.192480 -6.469440 -0.000000 -174.922000 -5.786190 -2.871480 39.081100 -0.000007 -0.000012 -0.099070 0.238073 22.593900 40.985400 -0.000006 -0.000013 -0.799144 3.043690 -66.157000 11.754300 -0.000000 0.000003 -0.000046 -0.000531 -16.598200 -2.192510 6.469440 -0.000001 -179.142000 13.669400 179.888000 -39.081100 -0.002282 -0.040193 0.019457 -0.046708 19.055700 -40.985400 0.000008 0.000006 5.893690 7.442720 -66.178000 -11.754300 -0.000006 -0.000006 -0.006044 -0.071235 -19.472300
0.000000 0.000000 0.000000 0.000000 0.000000 -0.000000 -1.412080 92.358300 -1.675910 87.773900 -2.461860 3.633160 15.735700 0.000005 -0.000001 82.626300 85.422000 -82.693900 8.984550 -0.406207 -0.000000 1.313800 -1.170710 -0.121531 16.377300 -0.000001 -0.000001 3.741640 -1.401920 1.028950 6.456720 -0.000001 -0.000000 4.413610 -0.863438 -1.137030 12.994200 -0.242716 4.980390 -89.862700 -0.422918 -72.007500 5.348090 -0.000007 -0.000001 -66.757500 42.262200 -15.702300 24.328600 0.000019 0.000005 1.108030 2.617040 -22.956400 22.291600 -0.000001 0.000005 4.523090 5.509860 -6.936000 12.994500 -0.242716 -4.980390 88.160600 5.673030 -72.002600 -5.348130 -0.000001 -0.000004 -58.626400 3.260880 -39.452900 -24.328900 0.000322 -0.000009 14.822200 5.942910 -68.632200 -22.291500 -0.000108 -0.000004 13.298400 5.303840 -0.037491 -2.192480 -6.469440 -0.000000 -174.970000 -5.900980 -2.943770 39.081100 -0.000007 -0.000012 -0.098555 0.236235 22.645500 40.985400 -0.000006 -0.000013 -0.743863 2.866440 -66.171200 11.754300 -0.000000 0.000003 -0.000051 -0.000578 -16.600000 -2.192510 6.469440 -0.000001 -179.162000 13.487900 179.795000 -39.081100 -0.002282 -0.040193 0.017915 -0.042277 19.042400 -40.985400 0.000008 0.000006 5.784720 7.555960 -66.094500 -11.754300 -0.000006 -0.000006 -0.005918 -0.070088 -19.425500
